<svg width="365" height="551" viewBox="0 0 365 551" fill="none" xmlns="http://www.w3.org/2000/svg">
<path d="M180.213 42.3809H186.969V12.8989H180.213V42.3809ZM179.934 8.37592H187.193V1.9549H179.934V8.37592Z" fill="#110F1C"/>
<path d="M112.26 2.73623L106.118 0.000226974L100.311 9.15723H105.392L112.26 2.73623Z" fill="#110F1C"/>
<path d="M99.6406 42.3804H106.397V12.8984H99.6406V42.3804Z" fill="#110F1C"/>
<path d="M214.071 26.1878C214.071 30.9898 210.107 34.2848 205.416 34.2848C200.782 34.2848 197.04 30.9898 197.04 26.1878V26.0758C197.04 21.2188 200.726 17.9798 205.416 17.9798C210.107 17.9798 214.071 21.2738 214.071 26.0758V26.1878ZM213.959 17.3098C211.67 14.5738 208.599 12.2848 203.629 12.2848C196.761 12.2848 190.228 17.4218 190.228 26.1318V26.2438C190.228 34.8988 196.706 40.0358 203.629 40.0358C208.487 40.0358 211.558 37.8018 214.015 34.6198V36.9088C214.015 42.8278 210.721 45.9538 204.69 45.9538C200.67 45.9538 197.375 44.7818 194.193 42.8278L191.68 47.9088C195.477 50.1978 200 51.4268 204.858 51.4268C210.162 51.4268 214.294 50.1418 216.974 47.4618C219.431 45.0048 220.716 41.3198 220.716 36.3498V12.8988H213.959V17.3098Z" fill="#110F1C"/>
<path d="M169.012 27.6954C169.012 33.3354 164.992 37.1324 160.469 37.1324C155.89 37.1324 151.982 33.3904 151.982 27.6954V27.5834C151.982 21.7204 155.834 18.1474 160.469 18.1474C164.992 18.1474 169.012 21.8884 169.012 27.5834V27.6954ZM168.9 17.4774C166.778 14.6854 163.707 12.2844 158.85 12.2844C151.814 12.2844 145.169 17.8124 145.169 27.5834V27.6954C145.124 28.3574 144.749 35.5514 150.059 39.6264C153.505 42.2694 157.624 42.2804 158.916 42.2834C159.991 42.2864 161.708 42.2744 163.733 41.4714C166.51 40.3694 168.16 38.4574 168.9 37.4664V42.3804H175.657V1.61937H168.9V17.4774Z" fill="#110F1C"/>
<path d="M247.205 27.4383C247.205 32.3993 243.825 36.5423 238.483 36.5423C233.359 36.5423 229.706 32.3443 229.706 27.3293V27.2203C229.706 22.2053 233.086 18.0623 238.374 18.0623C243.552 18.0623 247.205 22.2593 247.205 27.3293V27.4383ZM238.483 12.2843C229.652 12.2843 223.111 19.0983 223.111 27.3293V27.4383C223.111 35.6153 229.597 42.3203 238.374 42.3203C247.259 42.3203 253.801 35.5063 253.801 27.3293V27.2203C253.801 18.9893 247.314 12.2843 238.483 12.2843Z" fill="#110F1C"/>
<path d="M121.378 35.6746C120.708 36.2146 119.275 36.2736 118.59 35.7896C117.392 34.9436 117.802 31.3856 117.977 29.8656C118.218 27.7786 118.641 25.9356 119.243 24.3426C119.71 25.0486 120.128 25.8166 120.494 26.6446C121.992 30.0366 122.688 34.6196 121.378 35.6746ZM139.876 14.8116C137.923 12.5516 134.893 11.1186 131.343 10.7776C128.25 10.4806 124.91 11.0426 122.179 12.3206C120.674 13.0246 119.32 13.9336 118.121 15.0426C117.524 14.7056 116.907 14.4056 116.274 14.1446C114.26 13.3156 112.103 12.8806 109.862 12.8516L109.783 19.0166C111.241 19.0356 112.635 19.3146 113.926 19.8466C114.086 19.9126 114.244 19.9816 114.4 20.0556C114.166 20.5176 113.946 20.9956 113.739 21.4896C112.353 24.8066 111.989 27.9696 111.851 29.1596C111.526 31.9876 110.848 37.8706 115.033 40.8266C117.954 42.8896 122.439 42.7366 125.245 40.4776C126.868 39.1706 128.688 36.5446 128.138 31.4586C127.769 28.0546 126.511 25.0066 126.135 24.1526C125.292 22.2466 124.213 20.5266 122.941 19.0396C123.512 18.5936 124.129 18.2156 124.792 17.9056C128.437 16.2006 133.305 16.6386 135.21 18.8426C135.867 19.6046 136.11 20.7436 136.348 26.3856C136.568 31.6156 136.655 36.9666 136.604 42.2916L142.77 42.3496C142.821 36.9196 142.733 31.4616 142.509 26.1256C142.255 20.0996 142.051 17.3296 139.876 14.8116Z" fill="#110F1C"/>
<path d="M249.56 6.80623V6.79223C249.56 5.31923 250.709 4.21923 252.183 4.21923C253.268 4.21923 254.001 4.74723 254.417 5.50223L253.057 6.29823C252.873 5.94623 252.613 5.69923 252.161 5.69923C251.604 5.69923 251.238 6.18623 251.238 6.77823V6.79223C251.238 7.43423 251.619 7.88523 252.161 7.88523C252.627 7.88523 252.888 7.63123 253.092 7.26423L254.453 8.03323C254.037 8.76623 253.346 9.36523 252.119 9.36523C250.752 9.36523 249.56 8.33623 249.56 6.80623Z" fill="#110F1C"/>
<path d="M252.185 2.8918C250.044 2.8918 248.303 4.6328 248.303 6.7738C248.303 8.9148 250.044 10.6558 252.185 10.6558C254.326 10.6558 256.067 8.9148 256.067 6.7738C256.067 4.6328 254.326 2.8918 252.185 2.8918ZM252.185 11.8418C249.391 11.8418 247.117 9.5678 247.117 6.7738C247.117 3.9798 249.391 1.7068 252.185 1.7068C254.979 1.7068 257.253 3.9798 257.253 6.7738C257.253 9.5678 254.979 11.8418 252.185 11.8418Z" fill="#110F1C"/>
<path d="M49.508 197.078C49.508 193.028 45.907 189.427 41.406 189.427H40.056C35.555 189.427 31.955 193.028 31.955 197.078V304.645H49.508V197.078ZM81.463 197.078V480.174H49.508V336.601H31.955V480.174H0V197.078C0 175.025 18.003 157.472 40.056 157.472H41.406C63.46 157.472 81.463 175.025 81.463 197.078Z" fill="#110F1C"/>
<path d="M124.666 193.477V304.644H134.117C138.618 304.644 142.219 301.044 142.219 296.544V201.128C142.219 197.077 138.618 193.477 134.117 193.477H124.666ZM167.423 319.047C173.273 325.798 176.874 334.799 176.874 344.701V480.173H144.919V344.701C144.919 340.2 141.319 336.6 137.268 336.6H134.117H124.666V480.173H92.71V161.071H134.117C156.171 161.071 174.174 179.074 174.174 201.128V296.544C174.174 305.095 171.924 312.746 167.423 319.047Z" fill="#110F1C"/>
<path d="M212.875 193.477H188.121V161.071H269.584V193.477H244.83V480.173H212.875V193.477Z" fill="#110F1C"/>
<path d="M356.894 448.218V480.173H280.832V161.071H356.894V193.477H312.787V304.644H348.792V336.6H312.787V448.218H356.894Z" fill="#110F1C"/>
<path d="M0.254395 97.7738H18.2004L23.0944 111.732L27.8074 125.75L32.6414 111.732L37.4754 97.7738H55.4814V140.07H43.5174L43.6384 119.103L43.6984 110.282L40.7374 119.103L33.4264 140.07H21.8854L14.5744 119.103L11.6144 110.282L11.6744 119.103L11.7344 140.07H0.254395V97.7738Z" fill="#110F1C"/>
<path d="M59.0444 122.004V97.7736H72.2164V122.487C72.2164 128.167 76.3854 131.37 82.1864 131.37C88.0474 131.37 92.2164 128.167 92.2164 122.487V97.7736H105.026V122.064C105.026 134.089 96.0834 141.037 81.9444 141.037C67.9264 141.037 59.0444 134.089 59.0444 122.004Z" fill="#110F1C"/>
<path d="M121.761 107.019V130.946H129.979C137.713 130.946 142.184 127.019 142.184 119.043C142.184 110.946 137.713 107.019 129.979 107.019H121.761ZM108.649 97.7738H130.704C145.628 97.7738 155.719 105.629 155.719 118.983C155.719 132.155 145.507 140.07 130.522 140.07H108.649V97.7738Z" fill="#110F1C"/>
<path d="M172.577 123.756H185.387L179.042 108.348L172.577 123.756ZM172.033 97.7738H186.837L206.535 140.07H192.335L188.831 131.792H169.193L165.689 140.07H152.335L172.033 97.7738Z" fill="#110F1C"/>
<path d="M208.043 97.7738H222.303L232.213 111.128L242.001 124.481L241.88 97.7738H253.179V140.07H238.859L228.95 126.777L219.282 113.545L219.342 126.837V140.07H208.043V97.7738Z" fill="#110F1C"/>
<path d="M270.701 149.194H278.012C278.496 150.523 279.704 151.309 281.698 151.309C283.813 151.309 285.263 150.282 285.263 148.711C285.263 147.2 283.934 146.294 281.819 146.294C280.671 146.294 279.704 146.596 278.979 147.019H273.964L278.556 141.037C265.142 140.07 256.199 131.853 256.199 118.922C256.199 105.146 266.29 96.7471 281.215 96.7471C294.749 96.7471 304.78 103.997 306.169 115.901H293.058C291.97 109.617 287.317 106.233 281.456 106.233C274.387 106.233 269.734 110.583 269.734 118.922C269.734 127.261 274.387 131.671 281.396 131.671C287.438 131.671 292.151 128.106 293.058 121.581H306.169C304.901 132.94 296.018 140.191 283.571 141.037L281.94 143.091C282.605 142.97 283.39 142.91 284.175 142.91C288.949 142.91 292.03 145.327 292.03 148.65C292.03 152.699 287.861 155.599 281.637 155.599C275.837 155.599 271.547 153.061 270.701 149.194Z" fill="#110F1C"/>
<path d="M322.785 123.756H335.595L329.25 108.348L322.785 123.756ZM322.241 97.7738H337.045L356.743 140.07H342.543L339.039 131.792H319.401L315.897 140.07H302.543L322.241 97.7738Z" fill="#110F1C"/>
<path d="M8.56641 507.228H21.6974V549.783H8.56641V507.228Z" fill="#110F1C"/>
<path d="M25.6488 507.228H39.9958L49.9658 520.663L59.8148 534.099L59.6928 507.228H71.0608V549.783H56.6538L46.6828 536.409L36.9568 523.095L37.0168 536.47V549.783H25.6488V507.228Z" fill="#110F1C"/>
<path d="M88.1426 516.529V540.603H96.4106C104.192 540.603 108.691 536.652 108.691 528.627C108.691 520.48 104.192 516.529 96.4106 516.529H88.1426ZM74.9506 507.228H97.1396C112.156 507.228 122.309 515.131 122.309 528.566C122.309 541.819 112.035 549.783 96.9576 549.783H74.9506V507.228Z" fill="#110F1C"/>
<path d="M125.407 507.228H138.538V549.783H125.407V507.228Z" fill="#110F1C"/>
<path d="M174.892 549.783H159.937L140.119 507.228H154.527L161.153 522.669L167.84 538.172L174.467 522.669L181.093 507.228H194.71L174.892 549.783Z" fill="#110F1C"/>
<path d="M204.133 496.346H216.838L207.294 504.796H197.567L204.133 496.346ZM196.29 507.228H209.421V549.783H196.29V507.228Z" fill="#110F1C"/>
<path d="M226.564 516.529V540.603H234.832C242.614 540.603 247.112 536.652 247.112 528.627C247.112 520.48 242.614 516.529 234.832 516.529H226.564ZM213.372 507.228H235.562C250.577 507.228 260.73 515.131 260.73 528.566C260.73 541.819 250.456 549.783 235.379 549.783H213.372V507.228Z" fill="#110F1C"/>
<path d="M263.828 531.606V507.228H277.081V532.092C277.081 537.807 281.276 541.029 287.112 541.029C293.009 541.029 297.204 537.807 297.204 532.092V507.228H310.092V531.667C310.092 543.765 301.095 550.756 286.869 550.756C272.765 550.756 263.828 543.765 263.828 531.606Z" fill="#110F1C"/>
<path d="M351.064 528.506C351.064 520.177 346.14 515.739 338.966 515.739C331.732 515.739 326.807 520.177 326.807 528.506C326.807 536.834 331.732 541.333 338.966 541.333C346.14 541.333 351.064 536.834 351.064 528.506ZM313.19 528.506C313.19 514.645 323.707 506.195 338.966 506.195C354.164 506.195 364.742 514.645 364.742 528.506C364.742 542.367 354.164 550.817 338.966 550.817C323.707 550.817 313.19 542.367 313.19 528.506Z" fill="#110F1C"/>
</svg>
